<?xml version="1.0" standalone="no"?>
<!DOCTYPE svg PUBLIC "-//W3C//DTD SVG 20010904//EN"
 "http://www.w3.org/TR/2001/REC-SVG-20010904/DTD/svg10.dtd">
<svg version="1.0" xmlns="http://www.w3.org/2000/svg"
 width="85.000000pt" height="82.000000pt" viewBox="0 0 85.000000 82.000000"
 preserveAspectRatio="xMidYMid meet">

<g transform="translate(0.000000,82.000000) scale(0.100000,-0.100000)"
fill="#000000" stroke="none">
<path d="M544 502 l1 -37 -65 -13 c-46 -9 -86 -11 -138 -5 -63 8 -72 7 -70 -6
3 -12 14 -15 51 -13 29 2 47 0 47 -7 0 -12 91 -15 153 -5 25 5 37 12 37 23 0
9 5 22 10 27 7 7 8 19 1 36 -15 41 -28 41 -27 0z"/>
<path d="M262 382 c5 -41 43 -54 160 -54 111 1 148 14 148 56 l0 24 -52 -20
c-28 -10 -63 -25 -77 -33 -19 -10 -32 -10 -45 -3 -11 6 -46 21 -78 34 l-59 23
3 -27z"/>
<path d="M272 300 c7 -11 16 -20 20 -20 5 0 3 9 -4 20 -7 11 -16 20 -20 20 -5
0 -3 -9 4 -20z"/>
<path d="M535 300 c-21 -23 -4 -27 19 -4 18 17 20 24 8 24 -5 0 -17 -9 -27
-20z"/>
</g>
</svg>
